<svg xmlns="http://www.w3.org/2000/svg" viewBox="0 0 182.48 182.48"><defs><style>.cls-1{fill:#fff;}</style></defs><g id="Camada_3" data-name="Camada 3"><path class="cls-1" d="M142.67,182.48H39.81A39.86,39.86,0,0,1,0,142.66V39.81A39.86,39.86,0,0,1,39.81,0H142.67a39.86,39.86,0,0,1,39.81,39.81V142.66A39.86,39.86,0,0,1,142.67,182.48ZM39.81,14.32A25.53,25.53,0,0,0,14.32,39.81V142.66a25.53,25.53,0,0,0,25.49,25.5H142.67a25.53,25.53,0,0,0,25.49-25.5V39.81a25.53,25.53,0,0,0-25.49-25.49Z"/><path class="cls-1" d="M91.24,138.88a47.64,47.64,0,1,1,47.64-47.64A47.69,47.69,0,0,1,91.24,138.88Zm0-81a33.32,33.32,0,1,0,33.32,33.32A33.35,33.35,0,0,0,91.24,57.92Z"/><circle class="cls-1" cx="140.72" cy="40.26" r="11.3"/></g></svg>