<svg xmlns="http://www.w3.org/2000/svg" viewBox="0 0 120 120"><defs><style>.cls-1{fill:#fff;}</style></defs><g id="Camada_3" data-name="Camada 3"><path class="cls-1" d="M60,20A40.66,40.66,0,1,0,75.44,98.25l-2.13-4.82-8.47,3.76,0-1.63A34.29,34.29,0,0,1,60,95.9,35.32,35.32,0,1,1,88,82.06l3.5,3.34L83,89.15l1.68,3.79A40.65,40.65,0,0,0,60,20Z"/><path class="cls-1" d="M64.84,97.19l-.08-2.82A8.64,8.64,0,0,1,60,95.9c-9.07,0-16.74-16.15-16.74-35.26S50.93,25.39,60,25.39,76.74,41.53,76.74,60.64a70,70,0,0,1-.72,10l4.72,4.51a73.93,73.93,0,0,0,1.4-14.5C82.14,37.84,72.42,20,60,20S37.86,37.84,37.86,60.64,47.58,101.3,60,101.3c5,0,9.54-2.89,13.21-7.82Z"/><rect class="cls-1" x="57.3" y="22.69" width="5.41" height="75.91"/><rect class="cls-1" x="22.04" y="57.94" width="75.82" height="5.41"/><polygon class="cls-1" points="86.68 84.56 66.72 65.47 67.43 93.08 74.69 89.87 79.58 100.91 84.31 98.82 79.42 87.77 86.68 84.56"/></g></svg>