<svg xmlns="http://www.w3.org/2000/svg" viewBox="0 0 120 120"><defs><style>.cls-1{fill:none;stroke:#fff;stroke-miterlimit:10;stroke-width:5px;}</style></defs><g id="Camada_3" data-name="Camada 3"><path class="cls-1" d="M60.81,18.5c-22.61,0-40.93,14.68-40.93,32.78,0,15.09,12.73,27.79,30.05,31.61A31,31,0,0,1,37.75,99.53c9.41.54,25.18-5.53,31.87-16.23C88,80.07,101.75,67,101.75,51.28,101.75,33.18,83.42,18.5,60.81,18.5ZM42.26,58.28a5.84,5.84,0,1,1,5.84-5.83A5.84,5.84,0,0,1,42.26,58.28Zm18.59,0a5.84,5.84,0,1,1,5.84-5.83A5.84,5.84,0,0,1,60.85,58.28Zm18.59,0a5.84,5.84,0,1,1,5.84-5.83A5.84,5.84,0,0,1,79.44,58.28Z"/></g></svg>