<svg xmlns="http://www.w3.org/2000/svg" viewBox="0 0 182.48 182.48"><defs><style>.cls-1{fill:#fff;}</style></defs><g id="Camada_3" data-name="Camada 3"><path class="cls-1" d="M141.13,127.87,121.88,107a1,1,0,0,0-1.33-.06l-8.24,7.62a.93.93,0,0,0,0,1.32l.17.19c-6.21,0-18-6.73-25.33-14.51s-13-20.2-12.47-26.39l.17.19a.94.94,0,0,0,1.32,0l8.25-7.62a.93.93,0,0,0,0-1.32L65.16,45.67a.93.93,0,0,0-1.32-.05l-8.25,7.63a.92.92,0,0,0-.05,1.3h0c-4.26,5.29-5.34,11.09-3,19,1.18,3.93,4.69,19.81,22.5,39.15s33.46,24.06,37.29,25.54c7.68,3,13.55,2.36,19.16-1.47h0a.94.94,0,0,0,1.31,0l8.25-7.63A.93.93,0,0,0,141.13,127.87Z"/><path class="cls-1" d="M93.3,183a89.7,89.7,0,0,1-45.57-12.53l-28,8.79a7.21,7.21,0,0,1-9.07-8.93l8.08-27.12A89.19,89.19,0,0,1,3,92.74,90.27,90.27,0,1,1,93.3,183ZM48.7,155.4a7.2,7.2,0,0,1,3.88,1.14,75.73,75.73,0,1,0-35.13-63.8,75,75,0,0,0,15,44.87A7.21,7.21,0,0,1,33.58,144l-5.21,17.5,18.17-5.72A7.21,7.21,0,0,1,48.7,155.4Z"/></g></svg>