<svg xmlns="http://www.w3.org/2000/svg" viewBox="0 0 120 120"><defs><style>.cls-1{fill:#fff;}</style></defs><g id="Camada_3" data-name="Camada 3"><path class="cls-1" d="M66.94,23.82c-14.65,0-26.52,9.51-26.52,21.24,0,9.78,8.24,18,19.47,20.48A20.13,20.13,0,0,1,52,76.32c6.09.35,16.31-3.58,20.64-10.51,11.91-2.09,20.82-10.58,20.82-20.75C93.46,33.33,81.59,23.82,66.94,23.82Zm-12,25.78a3.79,3.79,0,1,1,3.78-3.78A3.78,3.78,0,0,1,54.92,49.6Zm12,0a3.79,3.79,0,1,1,3.78-3.78A3.79,3.79,0,0,1,67,49.6Zm12,0a3.79,3.79,0,1,1,3.78-3.78A3.78,3.78,0,0,1,79,49.6Z"/><path class="cls-1" d="M83.8,8.62H31.32a5.59,5.59,0,0,0-5.59,5.59v89.58a5.59,5.59,0,0,0,5.59,5.59H83.8a5.59,5.59,0,0,0,5.59-5.59V14.21A5.59,5.59,0,0,0,83.8,8.62ZM57.56,106.84a4.75,4.75,0,1,1,4.75-4.75A4.75,4.75,0,0,1,57.56,106.84Zm26-14.31h-52V14.74h52Z"/></g></svg>