<svg xmlns="http://www.w3.org/2000/svg" viewBox="0 0 182.48 182.48"><defs><style>.cls-1{fill:#fff;}</style></defs><g id="Camada_3" data-name="Camada 3"><path class="cls-1" d="M160.78,35.36c-5.12-3.5-8.75-6-11.37-6.91a183.09,183.09,0,0,0-20.55-5.4q-10.1-2-20.61-3.28l-28.88-2q-13-.42-24.52.08c-7.55.32-14.17.78-19.93,1.41a142.33,142.33,0,0,0-14.1,2.12,52,52,0,0,0-7.32,1.91C11.06,24.68,9.1,27.23,7.59,31a47.13,47.13,0,0,0-3,11.33,27.8,27.8,0,0,0,.09,9.63c.58,2.63,1.85,3.42,3.79,2.37A110.2,110.2,0,0,1,34.71,43.94q5.37-1.36,10.87-2.37c24.83-5.37,50.07-4.29,70-1.58a242.41,242.41,0,0,1,24.77,3.77c8,1.67,20.55,5.33,30.24,8.29a3.49,3.49,0,0,0,3.34-5.93A126.75,126.75,0,0,0,160.78,35.36Z"/><path class="cls-1" d="M5.67,96.67a3.48,3.48,0,0,0,3,6.09c9.83-2.46,22.55-5.47,30.63-6.74a243.2,243.2,0,0,1,24.92-2.51c20-1.69,45.3-1.49,69.83,5.13q5.43,1.31,10.73,2.93a110.14,110.14,0,0,1,25.71,11.69c1.88,1.15,3.19.42,3.9-2.17a28,28,0,0,0,.59-9.62A47.19,47.19,0,0,0,172.55,90q-2-5.73-5.51-8a50.71,50.71,0,0,0-7.21-2.29,142.29,142.29,0,0,0-14-2.84C140.13,76,133.54,75.21,126,74.5q-11.51-1.06-24.49-1.32l-28.94.51Q62,74.43,51.84,75.92A183.67,183.67,0,0,0,31,80.27c-2.66.79-6.41,3.09-11.7,6.32A128.53,128.53,0,0,0,5.67,96.67Z"/><path class="cls-1" d="M164.83,145.05c-5.13-3.5-8.76-6-11.37-6.9a182.14,182.14,0,0,0-20.55-5.41q-10.11-2-20.62-3.28l-28.87-2q-13-.41-24.53.08Q47.58,128,39,129a142.13,142.13,0,0,0-14.11,2.12A51,51,0,0,0,17.54,133q-3.64,2-5.91,7.66A47.13,47.13,0,0,0,8.6,152a27.82,27.82,0,0,0,.1,9.64c.58,2.62,1.84,3.42,3.78,2.37a110.14,110.14,0,0,1,26.27-10.38q5.39-1.35,10.87-2.37c24.83-5.37,50.07-4.28,70-1.58a242.41,242.41,0,0,1,24.77,3.77c8,1.68,20.56,5.34,30.24,8.29a3.49,3.49,0,0,0,3.34-5.93A129.06,129.06,0,0,0,164.83,145.05Z"/></g></svg>