<svg xmlns="http://www.w3.org/2000/svg" viewBox="0 0 120 120"><defs><style>.cls-1{fill:#fff;}</style></defs><g id="Camada_3" data-name="Camada 3"><path class="cls-1" d="M105.4,97.59H14.6V21.1h90.8Zm-85.8-5h80.8V26.1H19.6Z"/><rect class="cls-1" x="17.1" y="32.84" width="87.58" height="5"/><rect class="cls-1" x="17.1" y="80.1" width="87.58" height="5"/><rect class="cls-1" x="26.87" y="23.6" width="5" height="11.74"/><rect class="cls-1" x="39.12" y="23.6" width="5" height="11.74"/><rect class="cls-1" x="51.38" y="23.6" width="5" height="11.74"/><rect class="cls-1" x="63.63" y="23.6" width="5" height="11.74"/><rect class="cls-1" x="75.89" y="23.6" width="5" height="11.74"/><rect class="cls-1" x="88.14" y="23.6" width="5" height="11.74"/><rect class="cls-1" x="26.87" y="82.6" width="5" height="11.74"/><rect class="cls-1" x="39.12" y="82.6" width="5" height="11.74"/><rect class="cls-1" x="51.38" y="82.6" width="5" height="11.74"/><rect class="cls-1" x="63.63" y="82.6" width="5" height="11.74"/><rect class="cls-1" x="75.89" y="82.6" width="5" height="11.74"/><rect class="cls-1" x="88.14" y="82.6" width="5" height="11.74"/></g></svg>