<svg xmlns="http://www.w3.org/2000/svg" viewBox="0 0 120 120"><defs><style>.cls-1{fill:#fff;}</style></defs><g id="Camada_3" data-name="Camada 3"><path class="cls-1" d="M60.28,79.66A14.23,14.23,0,1,1,74.51,65.44,14.24,14.24,0,0,1,60.28,79.66Zm0-23.45a9.23,9.23,0,1,0,9.23,9.23A9.24,9.24,0,0,0,60.28,56.21Z"/><path class="cls-1" d="M93.35,92.15H27.22a5.84,5.84,0,0,1-5.83-5.84V44.56a5.84,5.84,0,0,1,5.83-5.84H43.06a.84.84,0,0,0,.82-.67l1.39-6.83A5.86,5.86,0,0,1,51,26.54H69.68A5.83,5.83,0,0,1,75.36,31l1.72,7.08a.83.83,0,0,0,.81.64H93.35a5.84,5.84,0,0,1,5.83,5.84V86.31A5.84,5.84,0,0,1,93.35,92.15ZM27.22,43.72a.84.84,0,0,0-.83.84V86.31a.84.84,0,0,0,.83.84H93.35a.84.84,0,0,0,.83-.84V44.56a.84.84,0,0,0-.83-.84H77.89a5.82,5.82,0,0,1-5.67-4.45L70.5,32.18a.84.84,0,0,0-.82-.64H51a.84.84,0,0,0-.82.67l-1.39,6.84a5.85,5.85,0,0,1-5.72,4.67Z"/><path class="cls-1" d="M34.29,55.52a4.06,4.06,0,1,1,4.06-4.06A4.06,4.06,0,0,1,34.29,55.52Z"/></g></svg>