<svg xmlns="http://www.w3.org/2000/svg" viewBox="0 0 120 120"><defs><style>.cls-1{fill:#fff;}</style></defs><g id="Camada_3" data-name="Camada 3"><path class="cls-1" d="M91.24,110.81H30a4.21,4.21,0,0,1-3.94-5.7l4.59-12.22a5.24,5.24,0,0,1,4.88-3.38h.85V44.74c0-17,15-32.5,31.5-32.5h.3l22.42,5.52-5.66,7.7,4,10.19-.68,5.45,6.34,16-9.39,5.47-1.31-1a63,63,0,0,0-8.75-5.25,16.37,16.37,0,0,1-8.33-7.27c-.46,3.07.73,7.11,5.74,12.69,1.23,1.37,2.36,2.53,3.44,3.65,5.25,5.42,8.72,9,8.62,20.91v3.12h1.13a5.24,5.24,0,0,1,4.88,3.38l4.6,12.22a4.27,4.27,0,0,1-.48,3.89A4.22,4.22,0,0,1,91.24,110.81Zm-60.13-5h59l-4.2-11.16a.22.22,0,0,0-.2-.14H79.58V86.37c.08-9.89-2.2-12.24-7.21-17.41-1.07-1.1-2.28-2.35-3.57-3.79-8.12-9-9.32-16.87-3.66-24l3.28-4.09,1.12,5.13c.07.35.16.71.26,1.07,1.39,5,3.93,7,7.31,8.5a58.47,58.47,0,0,1,8.32,4.84L88.33,55,83.09,41.75l.69-5.46L79.25,24.71l2.86-3.88L67.55,17.24c-13.75.18-26.2,13.21-26.2,27.5V94.51H35.5a.22.22,0,0,0-.2.14Z"/><rect class="cls-1" x="38.85" y="89.51" width="43.98" height="5"/></g></svg>