<svg id="Camada_1" data-name="Camada 1" xmlns="http://www.w3.org/2000/svg" viewBox="0 0 1058.04 490.21"><defs><style>.cls-1{fill:#fff;}</style></defs><path class="cls-1" d="M599.9,234a5.62,5.62,0,0,1-.7,2.46c-.7,1.4-1.92,4-3.67,7.72s-4.2,8.31-7.35,13.69S581.23,269,576.8,275.23A170,170,0,0,1,561.06,294a21.26,21.26,0,0,1-4.55,3.51,15.73,15.73,0,0,1-5.08,2.11,10.72,10.72,0,0,1-6.47-.7,39.33,39.33,0,0,1-11-5.62,31.59,31.59,0,0,1-9.27-10.88,3.08,3.08,0,0,0-.35-1.06,18,18,0,0,1-1-2.45A102.55,102.55,0,0,1,516,289.26a31.2,31.2,0,0,1-8.75,7.55q-6.64,3.85-14-1.23T481.09,280q-4.72-10.53-5.08-24.58T482.66,227q7-14.4,15.23-23.17A77.47,77.47,0,0,1,514,190.27a44.33,44.33,0,0,1,14.7-6,45.13,45.13,0,0,1,11-.87,10.27,10.27,0,0,1,5.77,2.28,17.84,17.84,0,0,1,3.68,4.21,18.77,18.77,0,0,1,2.1,4.92,19,19,0,0,1,.7,4.74q2.43-3.87,4.9-7.38l4.89-7c.94-1.4,2.45-1.87,4.56-1.4q4.44,1.09,8.74,2.63a25.52,25.52,0,0,1,9.8,6.14q2.8,2.82.7,6-2.44,3.17-6.82,9.31t-9.63,13.86q-5.25,7.72-10.5,16.5t-9.44,16.68a110.4,110.4,0,0,0-6.48,14.22q-2.28,6.31-1.22,9.83,1.39,6,6.12,5.26t11.73-7.37A141.89,141.89,0,0,0,575,258.22q8.75-11.93,18.9-28.78A2.24,2.24,0,0,1,596,228a2.34,2.34,0,0,1,2.1,1.05A9.41,9.41,0,0,1,599.9,234Zm-98.69,50.55c1.63.47,3.85-1.1,6.65-4.74a118.18,118.18,0,0,0,8.58-13q4.37-7.55,8.39-15.44T531,239.25q4.89-10.89,11.9-23.88a19.29,19.29,0,0,0,2.1-7.72,11.57,11.57,0,0,0-.35-2.81q-1.75-5.61-6-6.32c-2.8-.46-6.07.7-9.8,3.51s-7.7,7.32-11.9,13.52a120,120,0,0,0-11.9,23.7q-6.3,16.14-7.52,25.1T497,277.86c.71,3.51,2.11,5.74,4.21,6.67Z"/><path class="cls-1" d="M714.68,226.43c-.23-.58-.58-.88-1-.88H708a4,4,0,0,0-2.79,1.41,81.55,81.55,0,0,1-8,7.55,76.26,76.26,0,0,1-16.1,10,102.3,102.3,0,0,0,4.2-12.64q1.4-5.61,2.1-9.48a56.59,56.59,0,0,0,.7-8.42q.35-11.24-3.15-17.55t-7.7-9.13a19.37,19.37,0,0,0-11.55-3.51q-8.4,0-16.8,6.67a98.58,98.58,0,0,0-16.1,16.5l4.9-8.6a41.68,41.68,0,0,1,3.85-5.8,5.27,5.27,0,0,0,0-6.31,18.14,18.14,0,0,0-10.85-5.62,49.29,49.29,0,0,0-9.79-.35,6.75,6.75,0,0,0-4.9,3.16,615.21,615.21,0,0,0-35.35,72.84Q567,290.5,559.3,316.83t-10.67,43.36q-3,17-3.33,21.59a11.39,11.39,0,0,0,.7,3.16c.7.7,1.58,1.63,2.63,2.81a21.11,21.11,0,0,0,4.37,3.51,15.84,15.84,0,0,0,3.33,2.1l3,1.41a3.76,3.76,0,0,0,3.5-.35,5.6,5.6,0,0,0,2.45-3.16,561.14,561.14,0,0,1,14.17-59.16q8.24-27.21,17-50A355.82,355.82,0,0,1,620.54,241q11.55-16.5,20.3-26.68a141.11,141.11,0,0,1,19.25-18.61,16.75,16.75,0,0,1,3.85,7,32.5,32.5,0,0,1,.35,10.71q-.64,6.84-4.55,17.73-2.81,6.67-6,12.64a94.44,94.44,0,0,1-6.65,10.88q-13.65,2.11-21.87,6.32a53.7,53.7,0,0,0-12.6,8.43,26.35,26.35,0,0,0-6,7.72q-1.57,3.51-1.92,4.56a3.93,3.93,0,0,0-.35,1.76v.7a13.89,13.89,0,0,0,1.75,4.57,28,28,0,0,0,3,4.56,32.63,32.63,0,0,0,5.43,5.27q1,1.05,5.25,2.1t10.84-.7q6.65-1.75,15.23-7.9t18.72-19.83q3.15-3.87,5.6-7.55c.43-.65.82-1.27,1.24-1.91-4.45,1.29-8.92,2.4-13.37,3.49-5.68,1.38-11.34,2.7-16.9,4.24a93.29,93.29,0,0,0-12,4,42.33,42.33,0,0,1-9.4,6.46,13.52,13.52,0,0,1-4.2,1.06c1.16-4,3.85-7.14,8-9.48a54.34,54.34,0,0,1,13.3-5.27h0c1-.32,2-.63,3.07-.92,5.66-1.65,11.33-3.05,17-4.5s11.24-2.93,16.68-4.72a79.13,79.13,0,0,0,13.22-5.5q1.78-1,3.45-2.1a106,106,0,0,0,11.73-8.6,86.34,86.34,0,0,0,7.87-7.55,50.75,50.75,0,0,0,4.37-5.44A1.35,1.35,0,0,0,714.68,226.43Z"/><path class="cls-1" d="M809.87,230.82a8.17,8.17,0,0,1-1-2.11,2.67,2.67,0,0,0-1.57-1.93,2.27,2.27,0,0,0-2.3.22,52.46,52.46,0,0,1-9.27,4.56,68.89,68.89,0,0,1-9.63,2.81A91.64,91.64,0,0,0,787.82,211,60.87,60.87,0,0,0,784,192.38a30.67,30.67,0,0,0-8.57-12.46A20.49,20.49,0,0,0,763,175a25.36,25.36,0,0,0-20.3,7.72q-8.4,8.43-9.8,21.42c-.47-.47-.82-.7-1-.7a8.4,8.4,0,0,0-9.8.7,51.85,51.85,0,0,0-14.35,14.57,88.62,88.62,0,0,0-9.45,18.43,80.9,80.9,0,0,0-4.55,18.25q-1,8.79.35,14.05a37.12,37.12,0,0,0,6.48,14,58.8,58.8,0,0,0,8.57,9.13,48.53,48.53,0,0,0,10.5,6.32q7.35,2.44,16.28-.71a59.32,59.32,0,0,0,17.84-10.53,91.66,91.66,0,0,0,16.63-18.43,96.67,96.67,0,0,0,10.53-19.77c-2.52.19-5,.26-7.56.23a87.52,87.52,0,0,1-12.72-1.14,100.56,100.56,0,0,1-7.75,12.61,137.91,137.91,0,0,1-10.15,12.46,81.69,81.69,0,0,1-8.92,8.43,24.47,24.47,0,0,1-6.13,3.86q-2.1,1.05-4.72-.7a11.86,11.86,0,0,1-4.2-6,25.08,25.08,0,0,1-1-10.71q.53-6.5,4.72-15.62a115.61,115.61,0,0,1,8.23-14.75,88.45,88.45,0,0,1,7.52-9.83,25.56,25.56,0,0,0,6.12,7.55,69.71,69.71,0,0,0,6.13,4.39A51.74,51.74,0,0,0,757.1,243a8.63,8.63,0,0,0,2.8.88,24.2,24.2,0,0,1,2.8.52h0a83.37,83.37,0,0,0,10.71.69A76,76,0,0,0,788,243.84c1.62-.32,3.22-.71,4.8-1.16a39.16,39.16,0,0,0,6.43-2.56,60.43,60.43,0,0,0,8.22-4.74,1.84,1.84,0,0,0,.88-.7,2.77,2.77,0,0,1,.52-.7C809.75,232.11,810.1,231.06,809.87,230.82ZM771.9,214a68.78,68.78,0,0,1-4,20.71,16.68,16.68,0,0,1-10.15-6.14,33.51,33.51,0,0,1-6-10,31.78,31.78,0,0,1-1.23-10.35,56.46,56.46,0,0,1,1.4-11.06,29.77,29.77,0,0,1,3.5-9q2.28-3.69,5.08-4c1.63-.23,3.43.88,5.42,3.33a26,26,0,0,1,4.55,10.36A65.87,65.87,0,0,1,771.9,214Z"/><path class="cls-1" d="M866.21,228l-1.05-1A4.27,4.27,0,0,0,862,226a198.94,198.94,0,0,0-36.74,12.28v-.35a48.4,48.4,0,0,1-3.85-14,47.7,47.7,0,0,1,.17-12.29,42.38,42.38,0,0,1,2.63-9.83,25.22,25.22,0,0,1,3.5-6.32c1.86-2.1,3.85-2.57,5.95-1.4-1.18,4-2.1,7.61-2.8,10.88s-.59,5.62.34,7a18.94,18.94,0,0,1,2.63,3.16,13.51,13.51,0,0,0,1.93,2.46,3.55,3.55,0,0,0,3.67.7,5.28,5.28,0,0,0,3-2.81,96.86,96.86,0,0,1,4.9-12.64,55.19,55.19,0,0,1,10.5-15.09c2.33-2.57,2.68-5.27,1-8.07q-1.75-2.46-4-5.1a20,20,0,0,0-5.43-4.38,5.26,5.26,0,0,0-4.2-.36,4.34,4.34,0,0,0-2.8,3.17q-2.44,4.9-5.94,13.69a36.92,36.92,0,0,0-7.7-4.74,12.47,12.47,0,0,0-9.45-.18,27.53,27.53,0,0,0-9.45,7.72,36.52,36.52,0,0,0-6.65,11.24q-2.81,7-2.45,17.55a75,75,0,0,0,1.57,14.57q1.58,7.91,3.68,16-11.55,8.08-18,16.86t-8.58,16.67q-2.1,7.91.35,13.87a16.1,16.1,0,0,0,9.1,8.77q11.2,4.92,19.6,2.81A38.75,38.75,0,0,0,822.82,301a55.46,55.46,0,0,0,11.9-13.34,24.13,24.13,0,0,0,2.79-10,43.25,43.25,0,0,0-.69-10.89,70.79,70.79,0,0,0-3-10.7c-.66-1.82-1.31-3.5-1.94-5.07-2.67,1.22-5.29,2.49-7.83,3.88a76.58,76.58,0,0,0-12.34,8.38c-.23.19-.45.4-.67.59.57,1.56,1.1,3,1.61,4.33a61.36,61.36,0,0,1,2.1,6.49,14.76,14.76,0,0,1,0,9,16.53,16.53,0,0,1-3.5,5.79,17,17,0,0,1-6.3,3.86c-2.8,1.17-5.08,1.41-6.83.7a11.64,11.64,0,0,1-4-2.46,7.18,7.18,0,0,1-3-6.84,27.62,27.62,0,0,1,2.27-7.9,37.35,37.35,0,0,1,6-8.43c1.63-1.63,3.26-3.16,4.9-4.56s3.2-2.66,5-4a80.32,80.32,0,0,1,12.6-8.83c3.61-2.06,7.32-3.84,11-5.54a143,143,0,0,1,17.73-8.31q9.27-3.51,14.17-5.27a3.79,3.79,0,0,0,1.93-1.93,1.41,1.41,0,0,0-.5-1.94Z"/><path class="cls-1" d="M998.81,155.87c2.79,1.08,5.61,1.62,7.73.71a8.52,8.52,0,0,0,3.3-2.68,50.81,50.81,0,0,0,3-5.4q.51-1.09.93-2.19v-.05a23.89,23.89,0,0,0,1.5-6.72q.35-6.31-8.39-8.25a89,89,0,0,0-21.18-1.58q-12.42.36-25.37,1.93t-20.65,2.29q8.05-10.53,13.65-17.38t8.4-10q3.15-3.15.7-6a19.34,19.34,0,0,0-9.62-8.08A40.91,40.91,0,0,0,943.2,90c-1.87-.46-3.51.24-4.9,2.11q-9.1,11.24-16.8,22.12t-14.69,21.41a185.46,185.46,0,0,1-23.1,0,29,29,0,0,1-6.21-1l-.69-.15a38,38,0,0,0-4.37-.76,6.84,6.84,0,0,0-3.47.39,3.48,3.48,0,0,0-1.65,1.67,22.68,22.68,0,0,0-1.11,3.8c0,.23-.07.46-.09.69a36,36,0,0,0-.14,5.09,11.51,11.51,0,0,0,.76,2.57c.81,1.88,2.61,3.28,5.42,4.21q2.1.71,8.4.7t15.75-.35q-20.65,33.7-32.2,60.74t-16.45,43.18a39.68,39.68,0,0,0-1.92,10,29.86,29.86,0,0,0,.52,7.55,22.88,22.88,0,0,0,2.45,7,31.72,31.72,0,0,0,3.15,5.09,41.58,41.58,0,0,0,3.5,4,30.3,30.3,0,0,0,6.65,4.56c2.33,1.18,4.67,2.23,7,3.16a10.65,10.65,0,0,0,6.47.71,15.55,15.55,0,0,0,5.08-2.11,21.26,21.26,0,0,0,4.55-3.51,163.53,163.53,0,0,0,15.75-19q6.64-9.48,11.37-17.38a138.44,138.44,0,0,0,7.35-13.69c1.75-3.86,3-6.49,3.67-7.9a4.87,4.87,0,0,0,.35-2.1,8.94,8.94,0,0,0-1.75-5.27c-1.39-1.63-2.79-1.52-4.19.35q-9.81,16.86-18.55,29t-15.75,18.61q-7,6.5-11.72,7.37t-6.13-5.09q-1.05-2.81.7-8.07c.47-1.17,1-2.51,1.58-4s1.1-3,1.57-4.39q1-2.1,2.1-4.56a471.09,471.09,0,0,1,28.17-60.38Q914.51,170,927.8,150.73q34.31-2.11,52.67-.7c6.63.5,11.27,1.8,14,3.88A37.9,37.9,0,0,0,998.81,155.87Z"/><path class="cls-1" d="M1024,230.82a8.17,8.17,0,0,1-1-2.11,2.67,2.67,0,0,0-1.57-1.93,2.25,2.25,0,0,0-2.28.18,52.46,52.46,0,0,1-9.27,4.56,68.89,68.89,0,0,1-9.63,2.81A91.35,91.35,0,0,0,1002,211a60.79,60.79,0,0,0-3.85-18.61,30.67,30.67,0,0,0-8.57-12.46A20.5,20.5,0,0,0,977.15,175a25.36,25.36,0,0,0-20.3,7.72q-8.4,8.43-9.8,21.42c-.47-.47-.82-.7-1-.7a8.4,8.4,0,0,0-9.8.7,51.85,51.85,0,0,0-14.35,14.57,88.62,88.62,0,0,0-9.45,18.43,80.9,80.9,0,0,0-4.55,18.25q-1,8.79.35,14.05a37.27,37.27,0,0,0,6.48,14,58.8,58.8,0,0,0,8.57,9.13,48.53,48.53,0,0,0,10.5,6.32q7.35,2.44,16.28-.71a59.32,59.32,0,0,0,17.84-10.53,91.66,91.66,0,0,0,16.63-18.43A96.25,96.25,0,0,0,995,249.66c-2,.1-4,.16-5.92.13a86.79,86.79,0,0,1-14.2-1.38A101.55,101.55,0,0,1,967,261.19a137.91,137.91,0,0,1-10.15,12.46,81.69,81.69,0,0,1-8.92,8.43,24.47,24.47,0,0,1-6.13,3.86q-2.1,1.05-4.72-.7a11.86,11.86,0,0,1-4.2-6,25.23,25.23,0,0,1-1-10.71q.52-6.5,4.72-15.62a115.61,115.61,0,0,1,8.23-14.75,88.45,88.45,0,0,1,7.52-9.83,25.56,25.56,0,0,0,6.12,7.55,69.71,69.71,0,0,0,6.13,4.39,51.74,51.74,0,0,0,6.65,2.81,10.47,10.47,0,0,0,1.2.5c.65.14,1.31.27,2,.39a82.43,82.43,0,0,0,14.71,1.3q3.84,0,7.65-.37a.09.09,0,0,0,0-.07q10.16-1.4,16.63-4.74a60.43,60.43,0,0,0,8.22-4.74,1.84,1.84,0,0,0,.88-.7,2.77,2.77,0,0,1,.52-.7C1023.92,232.11,1024.27,231.06,1024,230.82ZM986,214a68.78,68.78,0,0,1-4,20.71,16.68,16.68,0,0,1-10.15-6.14,33.69,33.69,0,0,1-6-10,31.78,31.78,0,0,1-1.23-10.35,56.46,56.46,0,0,1,1.4-11.06,29.77,29.77,0,0,1,3.5-9q2.28-3.69,5.08-4c1.63-.23,3.43.88,5.42,3.33a26,26,0,0,1,4.55,10.36A65.64,65.64,0,0,1,986.07,214Z"/><path class="cls-1" d="M627.71,339.67l-.28,6.1s-5.59-.57-8.28-.57c-7.36,0-9.06,3-9.06,11.15,0,9.09,1.49,12.14,9.13,12.14,2.69,0,8.28-.57,8.28-.57l.21,6.18A85.74,85.74,0,0,1,617,375.38c-10.9,0-14.65-5.4-14.65-19,0-12.71,4.24-18,14.79-18A75.15,75.15,0,0,1,627.71,339.67Z"/><path class="cls-1" d="M664.65,356.63c0,11.79-3.61,18.75-15.78,18.75s-15.78-7-15.78-18.75c0-11.5,4-18.31,15.78-18.31S664.65,345.13,664.65,356.63Zm-7.78,0c0-8.23-1.77-11.78-8-11.78s-8,3.55-8,11.78,1.41,12.21,8,12.21S656.87,364.87,656.87,356.63Z"/><path class="cls-1" d="M672.29,374.59V339.1h7.65v2.2s5-3,9.19-3,7,1.06,9,3.48c0,0,6.44-3.48,12.17-3.48,9.63,0,12.25,5.18,12.25,17.25v19H714.9V355.78c0-7.1-.84-10.58-6-10.58a22.71,22.71,0,0,0-8.07,1.92,57.58,57.58,0,0,1,.57,9.09v18.38h-7.65V356.35c0-7.88-.77-11.15-6.08-11.15a19.42,19.42,0,0,0-7.64,1.85v27.54Z"/><path class="cls-1" d="M760.68,339.1v35.49H753v-2.2s-5.16,3-9.55,3c-10.12,0-12.24-5.26-12.24-17.75V339.1H739v18.6c0,7.88.5,10.79,6,10.79a20.81,20.81,0,0,0,8.06-1.85V339.1Z"/><path class="cls-1" d="M770,374.59V339.1h7.64v2.2s5.17-3,9.77-3c9.83,0,12.24,5.61,12.24,17.25v19H792V355.78c0-7.1-.92-10.58-6.3-10.58a21.26,21.26,0,0,0-8,1.85v27.54Z"/><path class="cls-1" d="M808.65,324.9h7.72v8.16h-7.72Zm0,14.2h7.72v35.49h-7.72Z"/><path class="cls-1" d="M849.56,339.67l-.29,6.1s-5.59-.57-8.28-.57c-7.36,0-9,3-9,11.15,0,9.09,1.48,12.14,9.12,12.14,2.69,0,8.28-.57,8.28-.57l.22,6.18a86.53,86.53,0,0,1-10.76,1.28c-10.9,0-14.65-5.4-14.65-19,0-12.71,4.25-18,14.79-18A75.15,75.15,0,0,1,849.56,339.67Z"/><path class="cls-1" d="M883.17,366.22c.14,2.13,1.06,3,3.11,3.26l-.21,5.9c-4.32,0-6.79-.57-9.41-2.63a31.11,31.11,0,0,1-11.39,2.63c-7,0-10.55-3.91-10.55-11.29s4.1-10.08,11.68-10.72l9.13-.78V350c0-3.9-1.7-5.11-5.17-5.11-4.74,0-13.3.71-13.3.71l-.29-5.47A72.56,72.56,0,0,1,871,338.32c8.63,0,12.17,3.62,12.17,11.71Zm-15.85-7.39c-3.26.29-4.89,1.85-4.89,5s1.35,5.19,4.32,5.19a33.6,33.6,0,0,0,8.78-1.56V358Z"/><path class="cls-1" d="M907.09,391a35,35,0,0,1-6.37-.71l.28-4.61s2.41.14,3.89.14c2,0,2.9-.64,2.9-2.2s-.92-1.92-2.9-1.92H902.7v-6.53c-8.42-1.06-11.4-6.6-11.4-18.81,0-12.71,4.25-18,14.79-18a75.77,75.77,0,0,1,10.62,1.35l-.28,6.1s-5.59-.57-8.28-.57c-7.36,0-9.06,3-9.06,11.15,0,9.09,1.49,12.14,9.13,12.14,2.69,0,8.28-.57,8.28-.57l.21,6.18A83.83,83.83,0,0,1,906,375.38v2.2c5.44.07,8.42,1.06,8.42,6S911.54,391,907.09,391Z"/><path class="cls-1" d="M950.32,366.22c.14,2.13,1.06,3,3.11,3.26l-.21,5.9c-4.32,0-6.79-.57-9.41-2.63a31.11,31.11,0,0,1-11.39,2.63c-7,0-10.55-3.91-10.55-11.29S926,354,933.55,353.37l9.13-.78V350c0-3.9-1.7-5.11-5.17-5.11-4.74,0-13.3.71-13.3.71l-.28-5.47a72.5,72.5,0,0,1,14.22-1.84c8.63,0,12.17,3.62,12.17,11.71Zm-3-38.05s-3.54,4-6.8,4c-3,0-7.14-2.84-9.48-2.84-1.84,0-5.3,2.42-5.3,2.42l-1.7-4.48s3.61-4,6.93-4c2.9,0,7.29,2.84,9.34,2.84,1.7,0,5.31-2.56,5.31-2.56Zm-12.81,30.66c-3.26.29-4.88,1.85-4.88,5S931,369,933.94,369a33.6,33.6,0,0,0,8.78-1.56V358Z"/><path class="cls-1" d="M989.88,356.63c0,11.79-3.61,18.75-15.78,18.75s-15.78-7-15.78-18.75c0-11.5,4-18.31,15.78-18.31S989.88,345.13,989.88,356.63Zm-7.79,0c0-8.23-1.77-11.78-8-11.78s-8,3.55-8,11.78,1.42,12.21,8,12.21S982.09,364.87,982.09,356.63Z"/><path class="cls-1" d="M404.9,207.87a191.56,191.56,0,0,0-7.5-43.15,158,158,0,0,0-18.32-40.34c-1-1.57-2.05-3.12-3.13-4.65l-1.63-2.28c-.55-.76-1-1.37-1.56-2.06-1-1.31-2-2.76-3-4.16-.26-.35-.49-.69-.77-1.06l-.86-1.12-1.72-2.23a126,126,0,0,0-54.21-39.6,150.87,150.87,0,0,0-43.4-9.38,205.51,205.51,0,0,0-21.92-.33,215,215,0,0,0-21.65,2A255,255,0,0,0,194.9,65.9c-7.43,2.53-14.77,5.41-22,8.49C159.05,80.29,145.54,87,132.2,94l-10,5.32c-3.36,1.82-6.84,3.45-10.08,5.19-.42.22-.82.45-1.23.68q-2.39,1.68-4.74,3.42l-.08.06a18.22,18.22,0,0,0-1.58,1.33c-.25.24-.48.49-.71.75a6.58,6.58,0,0,0-1.36,3.86,14.86,14.86,0,0,0,.94,4.75,55.41,55.41,0,0,0,5,9.64,48.31,48.31,0,0,0,2.92,4.56,13.9,13.9,0,0,0,3.42,3.38,6.83,6.83,0,0,0,4,1.11,11.56,11.56,0,0,0,4.5-1.22,21.21,21.21,0,0,0,2-1.06,16.73,16.73,0,0,0,1.71-1.3,184.74,184.74,0,0,1,14.78-11.67c5.18-3.63,10.53-7.08,16-10.29s11.21-6.13,17-8.87,11.71-5.23,17.72-7.43a208.13,208.13,0,0,1,36.94-10,167.68,167.68,0,0,1,37.7-2.44A125.34,125.34,0,0,1,303.23,91a96.27,96.27,0,0,1,16.38,7.77,93,93,0,0,1,14.61,10.57,99.19,99.19,0,0,1,12.45,13.14l1.39,1.81.69.91c.24.3.49.67.73,1,1,1.37,1.9,2.73,2.95,4.1.5.67,1.06,1.39,1.5,2l1.32,1.87c.87,1.26,1.7,2.54,2.53,3.83a126,126,0,0,1,14.74,33.88,153.26,153.26,0,0,1,3.8,18.38,171.76,171.76,0,0,1,1.54,18.81,181.19,181.19,0,0,1-.58,18.93c-.54,6.3-1.38,12.58-2.52,18.8A198.11,198.11,0,0,1,347,316.72a188.87,188.87,0,0,1-23,29.47,202.79,202.79,0,0,1-28.22,24.54,253.71,253.71,0,0,1-67.25,34.32,279.08,279.08,0,0,1-36.61,9.79,209.53,209.53,0,0,1-37.39,3.82A135.19,135.19,0,0,1,118,414.24c-2.93-.78-5.77-1.76-8.6-2.76a71.89,71.89,0,0,1-8.2-3.5,81.6,81.6,0,0,1-7.7-4.29,69.36,69.36,0,0,1-7.1-5.07A49.75,49.75,0,0,1,80.32,393a57.26,57.26,0,0,1-5.16-6.56,65.22,65.22,0,0,1-7.49-15.27c-3.73-11-5-23.26-4.27-35.65a158.88,158.88,0,0,1,6.85-37.24,220.59,220.59,0,0,1,14.64-35.84,252.17,252.17,0,0,1,45.86-63,270.11,270.11,0,0,1,31-26c29.28-21.55,43-19.73,48.66-32.5,3-6.79,7.43-14.41,2.28-16.28s-10.25,2.42-28.13,12.46c-7.52,4.22-14.43,7.14-28.75,16.2a246.55,246.55,0,0,0-39.58,31.39,280.7,280.7,0,0,0-28,31.77,276.54,276.54,0,0,0-22.94,35.68,241.2,241.2,0,0,0-16.92,39.22A183.33,183.33,0,0,0,39.55,334c-1.14,14.68-.18,30,4.46,44.93a90.75,90.75,0,0,0,9.93,21.46A84.14,84.14,0,0,0,61.1,410a80.16,80.16,0,0,0,8.58,8.51,106,106,0,0,0,9.22,7.14,109.29,109.29,0,0,0,9.83,6.09c3.35,1.9,6.79,3.54,10.26,5.13A105.91,105.91,0,0,0,109.58,441a173.91,173.91,0,0,0,43.7,8.79,204.41,204.41,0,0,0,22,.5c7.32-.2,14.61-.79,21.84-1.71a238.07,238.07,0,0,0,42.54-9.43,256,256,0,0,0,40.19-16.69c6.47-3.32,12.78-7,19-10.82a227.67,227.67,0,0,0,76.07-78,228.85,228.85,0,0,0,28.19-82.2q1.53-10.8,2-21.7C405.41,222.42,405.32,215.14,404.9,207.87Z"/><path class="cls-1" d="M335.27,390.19c-5.09,4.43-10.33,8.64-15.6,12.61a145.21,145.21,0,0,0,15.88,10.31c7.53,4.13,12.74,5.83,15.55,5.06s.63-5.11-6.45-12.86Q339.75,399.87,335.27,390.19Z"/><path class="cls-1" d="M331.16,380.24a302.05,302.05,0,0,1-11.13-39q-4.84-21.86-9-46.77-4.12-24.53-6.95-48.63-2.81-23.79-5.1-46Q296.68,178,295.53,161c-.16-2.32-1-15.46-1.18-17.78-.22-3.57-.43-6.82-.6-9.71-.43-7.09-.56-11.18-.39-12.31q.09-5.34-7-9.73a59.57,59.57,0,0,0-15.84-6.68,55.74,55.74,0,0,0-17-2q-8.15.38-11.36,3.72a124,124,0,0,0-8,12.84q-5.49,9.6-12.51,23.93l-1.16,2.36h0c-3.67,7.64-11,23-14,29.3q-8.07,17.31-16.42,35.93T173.8,248q-8,18.5-14.8,35.63-14.66,3.3-27.42,7.18c-8.35,2.54-15.62,5-21.88,7.35a160.53,160.53,0,0,0-15.17,6.45,59.38,59.38,0,0,0-7.63,4.26c-2.34,2.23-3.8,5.65-4.4,10.29a54.37,54.37,0,0,0-.11,13.55,32.19,32.19,0,0,0,2.89,10.75c1.41,2.77,3.06,3.3,4.93,1.56a127.08,127.08,0,0,1,26.39-19.21q5.61-3.07,11.47-5.8c26.23-13.19,54.78-19.28,77.85-22a278.18,278.18,0,0,1,28.8-2.95c17.18-.81,30.69-.71,40.16.35a377.85,377.85,0,0,0,4.74,46.26q3.64,21.16,10.11,31.2a101.9,101.9,0,0,0,21.34,23.29c1.52,1.24,3,2.41,4.5,3.56,6-4.46,11.91-9.22,17.63-14.27C332.51,383.78,331.83,382.05,331.16,380.24Zm-76-100.51c-6.64-2.69-11.52-4.16-14.71-4.43a211.83,211.83,0,0,0-24.56-.1q-11.88.68-24,2.29,7.41-18.27,15.74-36.79T224.21,205q8.25-17.2,16.17-32c5.23-9.76,16.1-28.38,20.28-35.57,1.81-2.8,3.48-5.21,5-7.19q4.57-6,5.82-5.43c1,.63,1.63,3.32,1.94,8.11q.16,2.69.27,6c0,1.07.18,12.05.18,13.16q0,12.07-.2,27.78t-.32,33.71q-.14,18,0,37.11t.93,37.68q-9-4.49-19.12-8.63Z"/><path class="cls-1" d="M181.07,307.09a226.77,226.77,0,0,0-35,10.36q-5.2,14.07-8.15,24.32-3.49,12.17-2.61,16.52a57,57,0,0,0,6.26,16.77A108.17,108.17,0,0,0,151.31,390c3.4,4.29,6.38,7.13,8.93,8.49s3.67.38,3.31-3q-1.86-17,3.72-41.18A458.8,458.8,0,0,1,181.07,307.09Z"/></svg>